<?xml version="1.0" encoding="UTF-8"?>
<svg width="400px" height="130px" viewBox="0 0 400 130" version="1.1" xmlns="http://www.w3.org/2000/svg" xmlns:xlink="http://www.w3.org/1999/xlink">
    <!-- Generator: Sketch 43.2 (39069) - http://www.bohemiancoding.com/sketch -->
    <title>Header</title>
    <desc>Created with Sketch.</desc>
    <defs></defs>
    <g id="Page-2" stroke="none" stroke-width="1" fill="none" fill-rule="evenodd">
        <g id="Header">
            <g id="Group" transform="translate(1.000000, 1.000000)">
                <rect id="Rectangle-3" fill="#F5F5F5" x="0" y="0" width="128" height="112"></rect>
                <path d="M69,8 L9,8 L9,104 L121,104 L121,60 L114,60 L114,96 L17,96 L17,31 L69,31 L69,8 Z" id="Combined-Shape" fill="#424242"></path>
                <rect id="Rectangle-4" fill="#FCA000" x="78" y="8" width="43" height="42"></rect>
                <polygon id="L" fill="#F5F5F5" points="90 15 95.3790984 15 95.3790984 36.9208315 109 36.9208315 109 42 90 42"></polygon>
                <path d="M33.5462929,126.5 C34.9936475,126.5 41.0353686,125.848633 44.5411838,125.098145 C45.5381193,124.884731 47.6768091,128 48.7495367,128 L60.3269257,128 C60.3269257,128 69.7585121,116.366629 71,115.168701 C70.1818455,114.017822 63.0602354,108.702116 63.3862294,108.092529 C65.9285129,103.338632 67.0925859,98.5264862 67.0925859,92.75 C67.0925859,74.1103897 52.0733989,59 33.5462929,59 C15.0191869,59 0,74.1103897 0,92.75 C0,111.38961 15.0191869,126.5 33.5462929,126.5 Z" id="Oval" fill="#F5F5F5"></path>
                <path d="M62.9868735,114.787157 C62.8766818,114.089168 62.0637886,112.985242 61.4337515,112.663856 C58.3708555,111.1005 56.552951,109.012142 54.934646,106.280151 C54.5699332,105.664558 53.4718639,105.263365 52.7579948,105.203402 C52.0441257,105.14387 50.8881517,105.432039 50.4253467,105.978178 C46.0310761,111.16564 40.0885466,112.770284 33.3240749,112.770284 C20.6974069,112.770284 11.7979353,104.342821 11.7979353,91.7376124 C11.7979353,83.6628588 14.5988387,77.7594153 21.456217,73.6379175 C23.0291489,76.8884393 24.9830889,81.7660381 29.5605802,87.0285618 C25.6252254,89.8860875 25.9508614,89.5460723 25.0926628,89.5460723 C24.6778236,89.5460723 23.6754882,88.2908696 23.2663851,87.9173651 C22.4951878,87.2132746 22.1562581,86.752862 20.934211,86.752862 C19.7389555,86.752862 18.2011646,87.8591532 17.8064127,88.959852 C17.4116608,90.0605507 17.3484671,91.9358857 18.349077,93.6512991 C19.0214621,94.8040143 22.075883,95.6331454 24.087421,95.6331454 C28.1554379,95.6331454 34.6827569,91.667769 42.158937,84.4506183 C45.6012381,81.127623 47.659794,78.7542001 49.3532886,76.8202798 C53.7436701,81.1212356 54.8502145,85.5765039 54.8502145,91.7376124 C54.8502145,93.7893021 54.5779762,96.2793255 54.0417102,98.2382663 C53.7193456,99.4146662 55.3290918,100.62946 56.5079265,100.950845 C56.7032465,101.004338 57.3570922,101.029789 57.5502518,101.029789 C58.5225311,101.029789 59.4144353,99.9275469 59.6832166,98.9461353 C60.3231925,96.6080027 60.6477177,94.1827295 60.6477177,91.7376124 C60.6477177,83.5269711 56.9642914,75.8188989 50.54163,70.5891609 C49.6008957,69.823444 48.2172341,69.9576063 47.4415713,70.8894081 C47.4000874,70.9394493 43.2331141,75.9314916 38.1418272,80.8432954 C36.7789076,82.1581713 35.5330936,83.2918637 34.3948786,84.2698242 C28.4263796,77.4624939 24.5614611,68.4447223 24.5208415,68.3489539 C24.2853339,67.7928925 23.8320356,67.3571888 23.2663851,67.1432195 C22.7007346,66.9292501 22.0719939,66.9559963 21.5266532,67.2169871 C16.9422479,69.4110354 13.0682549,72.8112495 10.3238344,77.0505166 C7.4951496,81.4204949 6,86.4992465 6,91.7376124 C6,99.0237853 8.84208058,105.873823 14.0029395,111.025911 C19.1637983,116.177568 26.0254979,119.01525 33.3240749,119.01525 C37.4776524,119.01525 41.3417216,118.471632 44.9966278,116.716307 C46.9416186,119.51387 49.5574864,121.412302 52.5402179,123.507095 C52.9676378,123.807275 53.5877215,124 54.168448,124 C54.7491745,124 55.3079594,123.777834 55.7331696,123.352915 L61.9911917,117.10596 C62.4915915,116.606411 63.0970652,115.484714 62.9868735,114.787157 Z M53.9118636,119 C51.8974402,117.763546 50.2714561,116.322764 49,114.646608 C50.1890999,113.854052 51.3183044,112.970451 52.3766034,112 C53.6780072,113.545673 55.2229563,114.901702 57,116.05802 L53.9118636,119 Z" id="Shape" fill="#424242" fill-rule="nonzero"></path>
            </g>
            <path d="M164.312,82 L164.312,37.648 L192.344,37.648 L192.344,44.496 L172.376,44.496 L172.376,55.824 L190.104,55.824 L190.104,62.672 L172.376,62.672 L172.376,82 L164.312,82 Z M228.302153,65.232 C228.302153,67.8773466 227.918157,70.2879891 227.150153,72.464 C226.38215,74.6400109 225.294161,76.4959923 223.886153,78.032 C222.478146,79.5680077 220.782163,80.7626624 218.798153,81.616 C216.814144,82.4693376 214.627499,82.896 212.238153,82.896 C209.848808,82.896 207.67283,82.4693376 205.710153,81.616 C203.747477,80.7626624 202.062161,79.5680077 200.654153,78.032 C199.246146,76.4959923 198.147491,74.6400109 197.358153,72.464 C196.568816,70.2879891 196.174153,67.8773466 196.174153,65.232 C196.174153,62.5866534 196.568816,60.1866774 197.358153,58.032 C198.147491,55.8773226 199.256813,54.0320077 200.686153,52.496 C202.115494,50.9599923 203.811477,49.7760042 205.774153,48.944 C207.73683,48.1119958 209.891475,47.696 212.238153,47.696 C214.584832,47.696 216.750144,48.1119958 218.734153,48.944 C220.718163,49.7760042 222.414146,50.9599923 223.822153,52.496 C225.230161,54.0320077 226.328816,55.8773226 227.118153,58.032 C227.907491,60.1866774 228.302153,62.5866534 228.302153,65.232 Z M220.366153,65.232 C220.366153,61.9039834 219.651494,59.269343 218.222153,57.328 C216.792813,55.386657 214.798166,54.416 212.238153,54.416 C209.678141,54.416 207.683494,55.386657 206.254153,57.328 C204.824813,59.269343 204.110153,61.9039834 204.110153,65.232 C204.110153,68.6026835 204.824813,71.2693235 206.254153,73.232 C207.683494,75.1946765 209.678141,76.176 212.238153,76.176 C214.798166,76.176 216.792813,75.1946765 218.222153,73.232 C219.651494,71.2693235 220.366153,68.6026835 220.366153,65.232 Z M254.980307,55.504 C254.340304,55.2906656 253.454979,55.0666678 252.324307,54.832 C251.193635,54.5973322 249.881648,54.48 248.388307,54.48 C247.534969,54.48 246.628312,54.5653325 245.668307,54.736 C244.708302,54.9066675 244.036309,55.0559994 243.652307,55.184 L243.652307,82 L235.908307,82 L235.908307,50.128 C237.401648,49.5733306 239.268296,49.0506691 241.508307,48.56 C243.748318,48.0693309 246.233627,47.824 248.964307,47.824 C249.47631,47.824 250.073637,47.8559997 250.756307,47.92 C251.438977,47.9840003 252.121637,48.0693328 252.804307,48.176 C253.486977,48.2826672 254.148304,48.4106659 254.788307,48.56 C255.42831,48.7093341 255.940305,48.8479994 256.324307,48.976 L254.980307,55.504 Z M260.92246,39.696 L268.66646,38.416 L268.66646,48.528 L280.57046,48.528 L280.57046,54.992 L268.66646,54.992 L268.66646,68.624 C268.66646,71.3120134 269.093123,73.2319942 269.94646,74.384 C270.799798,75.5360058 272.25045,76.112 274.29846,76.112 C275.706468,76.112 276.954455,75.9626682 278.04246,75.664 C279.130466,75.3653318 279.994457,75.0880013 280.63446,74.832 L281.91446,80.976 C281.018456,81.3600019 279.845134,81.7546646 278.39446,82.16 C276.943787,82.5653354 275.237137,82.768 273.27446,82.768 C270.885115,82.768 268.890468,82.4480032 267.29046,81.808 C265.690452,81.1679968 264.421132,80.2400061 263.48246,79.024 C262.543789,77.8079939 261.882462,76.3360086 261.49846,74.608 C261.114459,72.8799914 260.92246,70.9066778 260.92246,68.688 L260.92246,39.696 Z M315.120614,80.976 C313.627273,81.3600019 311.685959,81.7546646 309.296614,82.16 C306.907269,82.5653354 304.283295,82.768 301.424614,82.768 C298.736601,82.768 296.485956,82.3840038 294.672614,81.616 C292.859272,80.8479962 291.408619,79.7813402 290.320614,78.416 C289.232609,77.0506598 288.45395,75.4186762 287.984614,73.52 C287.515278,71.6213238 287.280614,69.5413446 287.280614,67.28 L287.280614,48.528 L295.024614,48.528 L295.024614,66.064 C295.024614,69.6480179 295.547275,72.2079923 296.592614,73.744 C297.637953,75.2800077 299.461934,76.048 302.064614,76.048 C303.003285,76.048 303.995275,76.0053338 305.040614,75.92 C306.085953,75.8346662 306.864611,75.7280006 307.376614,75.6 L307.376614,48.528 L315.120614,48.528 L315.120614,80.976 Z M324.582767,49.616 C326.076108,49.1893312 328.017422,48.7840019 330.406767,48.4 C332.796113,48.0159981 335.44142,47.824 338.342767,47.824 C341.073448,47.824 343.356092,48.1973296 345.190767,48.944 C347.025443,49.6906704 348.486762,50.7359933 349.574767,52.08 C350.662773,53.4240067 351.430765,55.0453238 351.878767,56.944 C352.32677,58.8426762 352.550767,60.9226554 352.550767,63.184 L352.550767,82 L344.806767,82 L344.806767,64.4 C344.806767,62.607991 344.689435,61.082673 344.454767,59.824 C344.2201,58.565327 343.836103,57.5413373 343.302767,56.752 C342.769431,55.9626627 342.044105,55.3866685 341.126767,55.024 C340.20943,54.6613315 339.089441,54.48 337.766767,54.48 C336.785429,54.48 335.761439,54.5439994 334.694767,54.672 C333.628095,54.8000006 332.83877,54.9066662 332.326767,54.992 L332.326767,82 L324.582767,82 L324.582767,49.616 Z M359.772921,65.424 C359.772921,62.4799853 360.21025,59.8986778 361.084921,57.68 C361.959592,55.4613222 363.122247,53.6160074 364.572921,52.144 C366.023595,50.6719926 367.687578,49.5626704 369.564921,48.816 C371.442264,48.0693296 373.362244,47.696 375.324921,47.696 C379.932944,47.696 383.527575,49.125319 386.108921,51.984 C388.690267,54.842681 389.980921,59.109305 389.980921,64.784 C389.980921,65.2106688 389.970254,65.690664 389.948921,66.224 C389.927587,66.757336 389.895588,67.2373312 389.852921,67.664 L367.772921,67.664 C367.986255,70.3520134 368.935579,72.4319926 370.620921,73.904 C372.306263,75.3760074 374.748905,76.112 377.948921,76.112 C379.826264,76.112 381.54358,75.941335 383.100921,75.6 C384.658262,75.258665 385.884916,74.8960019 386.780921,74.512 L387.804921,80.848 C387.378252,81.0613344 386.791591,81.2853322 386.044921,81.52 C385.298251,81.7546678 384.444926,81.967999 383.484921,82.16 C382.524916,82.352001 381.49026,82.5119994 380.380921,82.64 C379.271582,82.7680006 378.140927,82.832 376.988921,82.832 C374.044906,82.832 371.484932,82.394671 369.308921,81.52 C367.13291,80.645329 365.340928,79.4293411 363.932921,77.872 C362.524914,76.3146589 361.479591,74.4800106 360.796921,72.368 C360.114251,70.2559894 359.772921,67.9413459 359.772921,65.424 Z M382.236921,61.968 C382.236921,60.901328 382.087589,59.8880048 381.788921,58.928 C381.490253,57.9679952 381.052924,57.1360035 380.476921,56.432 C379.900918,55.7279965 379.196925,55.1733354 378.364921,54.768 C377.532917,54.3626646 376.540927,54.16 375.388921,54.16 C374.194248,54.16 373.148925,54.3839978 372.252921,54.832 C371.356916,55.2800022 370.599591,55.866663 369.980921,56.592 C369.362251,57.317337 368.882256,58.1493286 368.540921,59.088 C368.199586,60.0266714 367.964922,60.9866618 367.836921,61.968 L382.236921,61.968 Z" id="Fortune" fill="#424242"></path>
            <path d="M164.743385,103.196 C165.233385,100.564 166.241385,94.558 166.213385,93.494 L165.051385,93.494 L165.135385,92.948 L167.823385,92.948 C167.823385,93.872 167.333385,96.966 167.249385,97.526 C167.207385,97.764 167.179385,97.96 167.123385,98.17 L167.179385,98.17 C167.655385,97.4 168.271385,96.476 169.447385,96.476 C170.693385,96.476 171.309385,97.484 171.309385,98.912 C171.309385,101.04 169.951385,103.196 167.837385,103.196 C166.857385,103.196 166.437385,102.762 166.241385,102.216 C165.947385,102.412 165.597385,102.734 165.387385,103.196 L164.743385,103.196 Z M166.703385,101.418 C166.703385,102.118 167.011385,102.538 167.613385,102.538 C168.873385,102.538 169.713385,100.452 169.713385,98.422 C169.713385,97.568 169.503385,97.204 169.055385,97.204 C168.677385,97.204 168.313385,97.526 167.935385,98.002 C167.291385,98.884 166.703385,100.41 166.703385,101.418 Z M171.727231,98.8 L172.287231,98.912 C172.539231,97.89 172.847231,97.456 173.057231,97.456 C173.253231,97.456 173.351231,97.638 173.603231,98.45 C173.953231,99.612 174.597231,101.992 174.597231,103.532 C174.597231,104.386 174.219231,105.786 173.197231,105.786 C172.413231,105.786 172.693231,104.54 172.833231,104.134 C171.741231,104.064 171.363231,104.624 171.363231,105.114 C171.363231,105.996 172.273231,106.304 173.099231,106.304 C174.779231,106.304 175.885231,104.708 175.927231,102.594 C176.725231,101.88 177.411231,101.054 177.915231,99.99 C178.195231,99.416 178.447231,98.618 178.447231,97.904 C178.447231,97.19 178.195231,96.476 177.313231,96.476 C176.543231,96.476 176.291231,96.98 176.291231,97.61 C177.131231,97.442 177.649231,97.876 177.649231,98.688 C177.649231,99.304 177.299231,100.032 176.907231,100.648 C176.599231,101.124 176.235231,101.558 175.899231,101.894 C175.787231,100.312 175.241231,98.618 175.003231,97.89 C174.639231,96.854 174.247231,96.546 173.589231,96.546 C172.567231,96.546 172.021231,97.54 171.727231,98.8 Z M181.788924,103 L188.872924,103 L188.956924,102.23 C189.040924,101.432 189.348924,100.004 189.348924,100.004 L188.844924,100.004 C188.060924,102.216 187.794924,102.412 187.150924,102.412 L184.812924,102.412 L185.960924,94.292 L187.234924,94.292 L187.304924,93.746 L183.090924,93.746 L183.020924,94.292 L184.308924,94.292 L183.160924,102.454 L181.872924,102.454 L181.788924,103 Z M190.10277,100.508 C190.10277,98.632 191.01277,96.476 193.65877,96.476 C194.49877,96.476 195.52077,96.714 195.52077,97.792 C195.52077,99.15 194.02277,99.528 192.93077,99.878 C192.21677,100.116 191.86677,100.34 191.67077,100.522 C191.65677,100.704 191.65677,100.872 191.65677,101.012 C191.65677,102.202 192.03477,102.622 192.77677,102.622 C193.64477,102.622 194.30277,101.936 194.68077,101.11 L195.25477,101.292 C194.72277,102.384 194.00877,103.196 192.53877,103.196 C190.88677,103.196 190.10277,102.244 190.10277,100.508 Z M193.47677,96.966 C192.46877,96.966 191.95077,98.492 191.75477,99.822 C191.97877,99.654 192.27277,99.5 192.79077,99.318 C193.49077,99.08 194.09277,98.716 194.09277,97.652 C194.09277,97.218 193.88277,96.966 193.47677,96.966 Z M196.246616,100.466 C196.246616,98.324 197.282616,96.476 199.802616,96.476 C201.678616,96.476 202.420616,97.624 202.420616,99.178 C202.420616,101.362 201.314616,103.196 198.850616,103.196 C196.918616,103.196 196.246616,101.978 196.246616,100.466 Z M197.814616,101.026 C197.814616,102.118 198.136616,102.706 198.864616,102.706 C200.236616,102.706 200.838616,100.592 200.838616,98.646 C200.838616,97.61 200.530616,96.966 199.774616,96.966 C198.290616,96.966 197.814616,99.318 197.814616,101.026 Z M203.524462,103 L205.064462,103 C205.190462,101.922 205.554462,100.676 206.002462,99.626 C206.576462,98.296 207.304462,97.26 207.920462,97.26 C208.228462,97.26 208.312462,97.484 208.312462,97.946 C208.312462,99.136 207.640462,100.97 207.640462,101.922 C207.640462,102.79 208.200462,103.126 208.886462,103.126 C210.034462,103.126 210.538462,102.244 211.014462,100.9 L210.454462,100.76 C210.104462,101.768 209.698462,102.398 209.348462,102.398 C209.222462,102.398 209.138462,102.314 209.138462,102.02 C209.138462,101.11 209.838462,99.29 209.838462,98.044 C209.838462,97.022 209.348462,96.476 208.438462,96.476 C206.828462,96.476 205.960462,98.282 205.540462,99.346 L205.512462,99.346 C205.722462,98.282 205.932462,97.47 205.932462,96.672 L203.342462,96.672 L203.258462,97.218 L204.336462,97.218 C204.336462,98.03 204.084462,99.43 203.524462,103 Z M213.182308,103.196 C212.006308,103.196 211.362308,102.244 211.362308,100.76 C211.362308,98.632 212.692308,96.476 214.750308,96.476 C215.632308,96.476 216.066308,96.882 216.262308,97.414 C216.500308,97.232 216.822308,96.91 217.046308,96.476 L217.676308,96.476 C217.326308,98.17 216.808308,101.152 216.808308,102.02 C216.808308,102.3 216.878308,102.398 217.032308,102.398 C217.438308,102.398 217.872308,101.516 218.124308,100.76 L218.684308,100.9 C218.292308,101.964 217.844308,103.126 216.556308,103.126 C215.772308,103.126 215.408308,102.734 215.408308,101.95 C215.408308,101.796 215.422308,101.586 215.464308,101.362 L215.408308,101.362 C215.002308,102.188 214.344308,103.196 213.182308,103.196 Z M212.944308,101.32 C212.944308,102.16 213.140308,102.496 213.504308,102.496 C214.008308,102.496 214.484308,101.922 214.876308,101.194 C215.352308,100.326 215.800308,99.052 215.800308,98.254 C215.800308,97.68 215.562308,97.092 214.918308,97.092 C213.700308,97.092 212.944308,99.388 212.944308,101.32 Z M219.284154,103 L220.824154,103 C220.866154,102.258 221.468154,100.102 222.154154,98.674 C222.518154,97.918 222.938154,97.316 223.302154,97.316 C223.484154,97.316 223.554154,97.428 223.554154,97.722 C223.554154,98.17 223.358154,98.702 223.344154,98.814 C224.436154,98.842 224.912154,98.212 224.912154,97.526 C224.912154,96.784 224.324154,96.476 223.764154,96.476 C222.588154,96.476 221.930154,97.624 221.342154,99.164 L221.314154,99.164 C221.538154,98.114 221.692154,97.372 221.692154,96.672 L219.102154,96.672 L219.018154,97.218 L220.096154,97.218 C220.096154,97.946 219.844154,99.458 219.284154,103 Z M226.786,103.196 C225.61,103.196 224.98,102.3 224.98,100.816 C224.98,98.688 226.352,96.476 228.452,96.476 C229.152,96.476 229.544,96.77 229.74,97.064 C229.95,95.636 230.202,94.096 230.202,93.494 L229.026,93.494 L229.096,92.948 L231.812,92.948 C231.812,94.684 230.538,100.956 230.538,102.02 C230.538,102.3 230.608,102.398 230.762,102.398 C231.168,102.398 231.588,101.516 231.854,100.76 L232.414,100.9 C232.022,101.964 231.574,103.126 230.272,103.126 C229.53,103.126 229.068,102.748 229.068,101.964 C229.068,101.81 229.082,101.614 229.11,101.418 L229.068,101.418 C228.634,102.216 227.92,103.196 226.786,103.196 Z M226.576,101.278 C226.576,102.118 226.758,102.468 227.178,102.468 C228.158,102.468 229.474,99.738 229.474,98.226 C229.474,97.582 229.208,97.134 228.592,97.134 C227.234,97.134 226.576,99.668 226.576,101.278 Z M232.817846,100.466 C232.817846,98.324 233.853846,96.476 236.373846,96.476 C238.249846,96.476 238.991846,97.624 238.991846,99.178 C238.991846,101.362 237.885846,103.196 235.421846,103.196 C233.489846,103.196 232.817846,101.978 232.817846,100.466 Z M234.385846,101.026 C234.385846,102.118 234.707846,102.706 235.435846,102.706 C236.807846,102.706 237.409846,100.592 237.409846,98.646 C237.409846,97.61 237.101846,96.966 236.345846,96.966 C234.861846,96.966 234.385846,99.318 234.385846,101.026 Z M242.557538,103 L246.897538,103 L246.981538,102.454 L245.567538,102.454 L246.701538,94.334 L247.401538,94.334 C248.843538,94.334 249.137538,95.174 249.137538,96 C249.137538,97.54 248.493538,98.786 247.289538,98.786 C247.093538,98.786 246.883538,98.758 246.883538,98.758 L246.799538,99.318 C246.799538,99.318 247.037538,99.36 247.387538,99.36 C249.879538,99.36 250.887538,97.792 250.887538,96.196 C250.887538,94.838 250.075538,93.746 247.513538,93.746 L243.859538,93.746 L243.789538,94.292 L245.063538,94.292 L243.915538,102.454 L242.641538,102.454 L242.557538,103 Z M251.081384,100.508 C251.081384,98.632 251.991384,96.476 254.637384,96.476 C255.477384,96.476 256.499384,96.714 256.499384,97.792 C256.499384,99.15 255.001384,99.528 253.909384,99.878 C253.195384,100.116 252.845384,100.34 252.649384,100.522 C252.635384,100.704 252.635384,100.872 252.635384,101.012 C252.635384,102.202 253.013384,102.622 253.755384,102.622 C254.623384,102.622 255.281384,101.936 255.659384,101.11 L256.233384,101.292 C255.701384,102.384 254.987384,103.196 253.517384,103.196 C251.865384,103.196 251.081384,102.244 251.081384,100.508 Z M254.455384,96.966 C253.447384,96.966 252.929384,98.492 252.733384,99.822 C252.957384,99.654 253.251384,99.5 253.769384,99.318 C254.469384,99.08 255.071384,98.716 255.071384,97.652 C255.071384,97.218 254.861384,96.966 254.455384,96.966 Z M256.97323,101.88 C256.97323,102.692 257.95323,103.196 259.29723,103.196 C261.17323,103.196 262.06923,102.286 262.06923,101.152 C262.06923,98.94 258.84923,99.332 258.84923,97.876 C258.84923,97.302 259.36723,96.98 260.12323,96.98 C260.83723,96.98 261.17323,97.344 261.17323,97.89 C261.17323,98.282 261.04723,98.632 261.04723,98.632 C261.92923,98.66 262.40523,98.268 262.40523,97.708 C262.40523,96.98 261.46723,96.476 260.16523,96.476 C258.59723,96.476 257.53323,97.218 257.53323,98.436 C257.53323,100.522 260.72523,100.144 260.72523,101.698 C260.72523,102.356 260.10923,102.692 259.45123,102.692 C258.40123,102.692 258.05123,101.866 258.17723,100.97 C257.43523,100.97 256.97323,101.32 256.97323,101.88 Z M262.963076,101.88 C262.963076,102.692 263.943076,103.196 265.287076,103.196 C267.163076,103.196 268.059076,102.286 268.059076,101.152 C268.059076,98.94 264.839076,99.332 264.839076,97.876 C264.839076,97.302 265.357076,96.98 266.113076,96.98 C266.827076,96.98 267.163076,97.344 267.163076,97.89 C267.163076,98.282 267.037076,98.632 267.037076,98.632 C267.919076,98.66 268.395076,98.268 268.395076,97.708 C268.395076,96.98 267.457076,96.476 266.155076,96.476 C264.587076,96.476 263.523076,97.218 263.523076,98.436 C263.523076,100.522 266.715076,100.144 266.715076,101.698 C266.715076,102.356 266.099076,102.692 265.441076,102.692 C264.391076,102.692 264.041076,101.866 264.167076,100.97 C263.425076,100.97 262.963076,101.32 262.963076,101.88 Z M269.204923,100.466 C269.204923,98.324 270.240923,96.476 272.760923,96.476 C274.636923,96.476 275.378923,97.624 275.378923,99.178 C275.378923,101.362 274.272923,103.196 271.808923,103.196 C269.876923,103.196 269.204923,101.978 269.204923,100.466 Z M270.772923,101.026 C270.772923,102.118 271.094923,102.706 271.822923,102.706 C273.194923,102.706 273.796923,100.592 273.796923,98.646 C273.796923,97.61 273.488923,96.966 272.732923,96.966 C271.248923,96.966 270.772923,99.318 270.772923,101.026 Z M278.064769,103.196 C276.888769,103.196 276.244769,102.244 276.244769,100.76 C276.244769,98.632 277.574769,96.476 279.632769,96.476 C280.514769,96.476 280.948769,96.882 281.144769,97.414 C281.382769,97.232 281.704769,96.91 281.928769,96.476 L282.558769,96.476 C282.208769,98.17 281.690769,101.152 281.690769,102.02 C281.690769,102.3 281.760769,102.398 281.914769,102.398 C282.320769,102.398 282.754769,101.516 283.006769,100.76 L283.566769,100.9 C283.174769,101.964 282.726769,103.126 281.438769,103.126 C280.654769,103.126 280.290769,102.734 280.290769,101.95 C280.290769,101.796 280.304769,101.586 280.346769,101.362 L280.290769,101.362 C279.884769,102.188 279.226769,103.196 278.064769,103.196 Z M277.826769,101.32 C277.826769,102.16 278.022769,102.496 278.386769,102.496 C278.890769,102.496 279.366769,101.922 279.758769,101.194 C280.234769,100.326 280.682769,99.052 280.682769,98.254 C280.682769,97.68 280.444769,97.092 279.800769,97.092 C278.582769,97.092 277.826769,99.388 277.826769,101.32 Z" id="by-Leonardo-Pessoa" fill="#BBBBBB"></path>
        </g>
    </g>
</svg>